# xmcd CD database file
#
# Track frame offsets:
#	150
#	13219
#	25651
#	36641
#	51972
#	63480
#	73953
#	85625
#	96127
#	104773
#	114167
#	125547
#	138708
#	146414
#	157397
#	169077
#	178861
#	191146
#	211351
#	223778
#	234315
#	245137
#	254947
#	266702
#	278271
#	289428
#	299818
#	310954
#	320951
#
# Disc length: 4474 seconds
#
# Revision: 1
# Processed by: cddbd v1.5.2PL0 Copyright (c) Steve Scherf et al.
# Submitted via: CDex 2.16
#
DISCID=ea11781d
DTITLE=Various Artist - How Britain Got the Blues, Vol. 2: How Merseyside Got the Blues  Disc 1
DYEAR=2013
DGENRE=Blues
TTITLE0=Arthur 'Big Boy' Crudup - That's Alright
TTITLE1=Arthur Gunther - Baby Let's Play House
TTITLE2=Billy 'The Kid' Emerson - Red Hot
TTITLE3=Arthur Smith - Guitar Boogie
TTITLE4=Chuck Berry - Rock and Roll Music
TTITLE5=Jimmy Reed - Take Out Some Insurance
TTITLE6=Ray Charles - Hallelujah, I Love Her So
TTITLE7=Little Richard - Rip It Up
TTITLE8=The Clovers - Love Potion No 9
TTITLE9=Elvis Presley - I'm Gonna Sit Right Down
TTITLE10=Lloyd Price - Lawdy Miss Clawdy
TTITLE11=Eddie Fontaine - Ain't Nothin' Shakin'
TTITLE12=Chan Romero - Hippy Hippy Shake
TTITLE13=Smiley Lewis - One Night
TTITLE14=Barrett Strong - Money
TTITLE15=Little Richard - Long Tall Sally
TTITLE16=Chuck Berry - Around And Around
TTITLE17=The Isley Brothers - Shout
TTITLE18=Larry Williams - Slow Down
TTITLE19=The Coasters - Young Blood
TTITLE20=Chuck Berry - Roll Over Beethoven
TTITLE21=The Isley Brothers - Respectable
TTITLE22=Little Willie John - Leave My Kitten Alone
TTITLE23=The Vipers - No Other Baby
TTITLE24=Chuck Berry - Broken Arrow
TTITLE25=Duane Eddy - Peter Gunn
TTITLE26=Little Richard - All Around The World
TTITLE27=Larry Williams - Dizzy Miss Lizzy
TTITLE28=Chuck Berry - Reelin' And Rockin'
EXTD=YEAR: 2013
EXTT0=
EXTT1=
EXTT2=
EXTT3=
EXTT4=
EXTT5=
EXTT6=
EXTT7=
EXTT8=
EXTT9=
EXTT10=
EXTT11=
EXTT12=
EXTT13=
EXTT14=
EXTT15=
EXTT16=
EXTT17=
EXTT18=
EXTT19=
EXTT20=
EXTT21=
EXTT22=
EXTT23=
EXTT24=
EXTT25=
EXTT26=
EXTT27=
EXTT28=
PLAYORDER=
